<svg viewBox="0 0 20.4 4" xmlns="http://www.w3.org/2000/svg" xmlns:xlink="http://www.w3.org/1999/xlink"><linearGradient id="a" gradientUnits="userSpaceOnUse" x1="2.03" x2="3.96" y1="2.09" y2="2"><stop offset="0" stop-color="#6831e3"/><stop offset="1" stop-color="#f528cb"/></linearGradient><linearGradient id="b" gradientUnits="userSpaceOnUse" x1="3.71" x2="4.7" y1="2.47" y2="4.61"><stop offset="0" stop-color="#6831e3"/><stop offset=".67" stop-color="#f528cb"/><stop offset=".88" stop-color="#f528cb"/></linearGradient><linearGradient id="c" gradientUnits="userSpaceOnUse" x1="3.89" x2="5.54" y1="1.68" y2=".11"><stop offset="0" stop-color="#6831e3"/><stop offset=".91" stop-color="#e929cd"/><stop offset="1" stop-color="#f528cb"/></linearGradient><linearGradient id="d" x1=".46" x2="1.95" xlink:href="#a" y1="1.52" y2="1.52"/><linearGradient id="e" x1=".74" x2="2.23" xlink:href="#a" y1="2.08" y2="2.08"/><linearGradient id="f" x1="0" x2="1.75" xlink:href="#a" y1="2.62" y2="2.62"/><path d="m4.24 2.3-.89.98-.66.72h-1.65l1.69-1.87-1.06-1.97h1.41l.53.99z" fill="url(#a)"/><path d="m5.15 4h-1.41l-.39-.72.89-.98z" fill="url(#b)"/><path d="m6.31.02-1.93 2.14-.63-1.15.9-.99z" fill="url(#c)"/><g fill="#282828" transform="translate(-.39 -.17)"><path d="m8.8 1.11a.94.94 0 0 1 .36.36 1.11 1.11 0 0 1 .13.53 1.39 1.39 0 0 1 -.17.68 1.27 1.27 0 0 1 -.46.48 1.19 1.19 0 0 1 -.66.21.78.78 0 0 1 -.71-.32l-.22 1.1h-.77l.63-3.15h.77v.22a1 1 0 0 1 .62-.22 1 1 0 0 1 .48.11zm-.48 1.43a.69.69 0 0 0 .15-.46.44.44 0 0 0 -.12-.32.43.43 0 0 0 -.35-.13.5.5 0 0 0 -.4.18.7.7 0 0 0 -.15.47.41.41 0 0 0 .44.44.5.5 0 0 0 .43-.18z"/><path d="m12 2.37h-1.7q0 .38.52.38a1 1 0 0 0 .3 0 .79.79 0 0 0 .26-.14l.34.51a1.61 1.61 0 0 1 -1 .3 1.51 1.51 0 0 1 -.65-.13 1 1 0 0 1 -.43-.37 1 1 0 0 1 -.15-.56 1.34 1.34 0 0 1 .18-.68 1.25 1.25 0 0 1 .49-.48 1.49 1.49 0 0 1 .74-.2 1.36 1.36 0 0 1 .6.13.92.92 0 0 1 .4.36 1 1 0 0 1 .1.51 1.79 1.79 0 0 1 0 .37zm-1.46-.71a.59.59 0 0 0 -.19.29h1a.35.35 0 0 0 -.12-.29.46.46 0 0 0 -.32-.1.52.52 0 0 0 -.37.1z"/><path d="m15.23.17-.63 3.16h-.77v-.23a.93.93 0 0 1 -.67.26 1 1 0 0 1 -.48-.13.94.94 0 0 1 -.36-.36 1.11 1.11 0 0 1 -.14-.56 1.38 1.38 0 0 1 .17-.68 1.26 1.26 0 0 1 .46-.48 1.2 1.2 0 0 1 .68-.15.79.79 0 0 1 .7.31l.23-1.14zm-1.34 2.37a.69.69 0 0 0 .11-.47.45.45 0 0 0 -.12-.32.42.42 0 0 0 -.32-.12.5.5 0 0 0 -.4.18.7.7 0 0 0 -.15.47.44.44 0 0 0 .11.32.43.43 0 0 0 .32.12.5.5 0 0 0 .45-.18z"/><path d="m18.21.17-.63 3.16h-.77v-.23a.93.93 0 0 1 -.67.26 1 1 0 0 1 -.48-.13.94.94 0 0 1 -.36-.36 1.11 1.11 0 0 1 -.14-.56 1.38 1.38 0 0 1 .17-.68 1.26 1.26 0 0 1 .46-.48 1.2 1.2 0 0 1 .68-.15.79.79 0 0 1 .7.31l.23-1.14zm-1.35 2.37a.69.69 0 0 0 .14-.47.45.45 0 0 0 -.12-.32.42.42 0 0 0 -.32-.12.5.5 0 0 0 -.4.18.7.7 0 0 0 -.15.47.44.44 0 0 0 .11.32.43.43 0 0 0 .32.12.5.5 0 0 0 .42-.18z"/><path d="m18.74 3.24a1 1 0 0 1 -.42-.37 1 1 0 0 1 -.15-.55 1.28 1.28 0 0 1 .69-1.16 1.51 1.51 0 0 1 .73-.16 1.48 1.48 0 0 1 .64.13 1 1 0 0 1 .42.37 1 1 0 0 1 .15.5 1.29 1.29 0 0 1 -.69 1.16 1.51 1.51 0 0 1 -.73.17 1.47 1.47 0 0 1 -.64-.09zm1.08-.7a.69.69 0 0 0 .18-.47.45.45 0 0 0 -.12-.32.42.42 0 0 0 -.32-.12.5.5 0 0 0 -.4.18.7.7 0 0 0 -.15.47.44.44 0 0 0 .12.32.43.43 0 0 0 .32.12.5.5 0 0 0 .37-.18z"/></g><rect fill="url(#d)" height=".25" rx=".12" width="1.49" x=".46" y="1.4"/><rect fill="url(#e)" height=".25" rx=".12" width="1.49" x=".74" y="1.96"/><rect fill="url(#f)" height=".25" rx=".12" width="1.75" y="2.5"/></svg>